<svg width="40px" height="40px" viewBox="1.1 1.1 2.55 2.55" xmlns="http://www.w3.org/2000/svg">
  <path fill="white" fill-opacity="1" stroke-width="0.0125" stroke-linejoin="round" d="M1.385 1.385h0.198v0.198h-0.198zM1.188 1.188h0.594v0.594H1.188zm0.099 0.099v0.396h0.396v-0.396zm1.88 0.099h0.198v0.198h-0.198zM2.969 1.188H3.563v0.594h-0.594zm0.099 0.099v0.396h0.396v-0.396zM1.385 3.167h0.198v0.198h-0.198zM1.188 2.969h0.594V3.563H1.188zm0.099 0.099v0.396h0.396v-0.396zM1.188 1.979h0.198v0.198h0.198V2.375h0.396v-0.198h-0.396v-0.198h0.396v0.198H2.375v0.396h-0.198v0.198h0.396v0.396H2.375v0.198h0.198V3.563H2.375v-0.198h-0.198V3.563h-0.198v-0.594h0.198v0.198H2.375V2.969h-0.198v-0.198H1.781v-0.198h-0.396v0.198H1.188v-0.198h0.198v-0.396H1.188zM2.177 2.375h-0.198v0.198h0.198zm0.396 -0.198h0.198v-0.198H2.375V1.781h-0.198v0.198h-0.198V1.781h0.198v-0.198h-0.198V1.188h0.198v0.396H2.375v-0.198h0.198V1.188h0.198v0.396h-0.198V1.781h0.198v0.198H2.969V2.375h0.198v0.198h0.198V2.969H3.563v0.396h-0.198v-0.198h-0.198V3.563h-0.396v-0.198H2.969v-0.198h-0.198V2.969H2.969v0.198h0.198v-0.396H2.969V2.375h-0.198v0.396h-0.198zm0.594 -0.198h0.198v0.198H3.563V2.375h-0.396z"/>
</svg>
